<svg width="78" height="78" viewBox="0 0 78 78" fill="none" xmlns="http://www.w3.org/2000/svg">
<g filter="url(#filter0_d)">
<circle cx="39" cy="35" r="35" fill="#58BEBF" fill-opacity="0.2"/>
<path fill-rule="evenodd" clip-rule="evenodd" d="M33.4251 40.1036C33.4251 37.0534 35.9067 34.5718 38.957 34.5718C42.0073 34.5718 44.4889 37.0534 44.4889 40.1036C44.4889 43.1539 42.0073 45.6355 38.957 45.6355C35.9067 45.6355 33.4251 43.1539 33.4251 40.1036ZM35.1225 40.7647L37.8596 43.5018L42.7915 38.5699L41.5485 37.327L37.8596 41.0159L36.3654 39.5217L35.1225 40.7647Z" fill="#58BEBF"/>
<path d="M44.5768 23.4232H42.3803C42.3802 21.5326 40.8476 20 38.957 20C37.0664 20 35.5338 21.5326 35.5338 23.4232H33.3372V27.8115H44.5767V23.4232H44.5768Z" fill="#58BEBF"/>
<path fill-rule="evenodd" clip-rule="evenodd" d="M46.3346 29.5694V23.4233H49.8736V50.0001H28.0404V23.4233H31.5794V29.5694H46.3346ZM31.6673 40.1039C31.6673 44.1234 34.9374 47.3936 38.957 47.3936C42.9766 47.3936 46.2467 44.1234 46.2467 40.1039C46.2467 36.0844 42.9765 32.8142 38.957 32.8142C34.9375 32.8142 31.6673 36.0843 31.6673 40.1039Z" fill="#58BEBF"/>
</g>
<defs>
<filter id="filter0_d" x="0" y="0" width="78" height="78" filterUnits="userSpaceOnUse" color-interpolation-filters="sRGB">
<feFlood flood-opacity="0" result="BackgroundImageFix"/>
<feColorMatrix in="SourceAlpha" type="matrix" values="0 0 0 0 0 0 0 0 0 0 0 0 0 0 0 0 0 0 127 0" result="hardAlpha"/>
<feOffset dy="4"/>
<feGaussianBlur stdDeviation="2"/>
<feComposite in2="hardAlpha" operator="out"/>
<feColorMatrix type="matrix" values="0 0 0 0 0 0 0 0 0 0 0 0 0 0 0 0 0 0 0.25 0"/>
<feBlend mode="normal" in2="BackgroundImageFix" result="effect1_dropShadow"/>
<feBlend mode="normal" in="SourceGraphic" in2="effect1_dropShadow" result="shape"/>
</filter>
</defs>
</svg>
