<svg width="70" height="70" viewBox="0 0 70 70" fill="none" xmlns="http://www.w3.org/2000/svg">
<circle cx="35" cy="35" r="35" fill="#DEF2F2"/>
<path d="M38.75 20H45.5V27.5H38.75V20Z" fill="#58BEBF"/>
<path d="M23 20H29.75V27.5H23V20Z" fill="#58BEBF"/>
<ellipse cx="34.625" cy="41" rx="4.125" ry="3.75" fill="#58BEBF"/>
<path fill-rule="evenodd" clip-rule="evenodd" d="M25.25 41.375C25.25 36.6116 29.2794 32.75 34.25 32.75C39.2206 32.75 43.25 36.6116 43.25 41.375C43.25 46.1384 39.2206 50 34.25 50C29.2794 50 25.25 46.1384 25.25 41.375ZM28.3931 41.375C28.3931 44.4699 31.0205 46.9878 34.25 46.9878C37.4795 46.9878 40.1069 44.4699 40.1069 41.375C40.1069 38.2801 37.4795 35.7622 34.25 35.7622C31.0205 35.7622 28.3931 38.28 28.3931 41.375Z" fill="#58BEBF"/>
<path d="M30.3477 31.3905C31.1222 31.0495 31.9259 30.8114 32.75 30.6768L31.1394 29H24.5L28.1021 32.75C28.791 32.2009 29.5421 31.7453 30.3477 31.3905Z" fill="#58BEBF"/>
<path d="M35.75 30.6768C36.5741 30.8113 37.3778 31.0494 38.1523 31.3905C38.9579 31.7452 39.709 32.2008 40.3979 32.75L44 29H37.3606C36.9268 29.4516 36.3201 30.0832 35.75 30.6768Z" fill="#58BEBF"/>
</svg>
